<svg xmlns="http://www.w3.org/2000/svg" version="1.1" xmlns:xlink="http://www.w3.org/1999/xlink" xmlns:svgjs="http://svgjs.dev/svgjs" viewBox="0 0 800 800"><defs><linearGradient x1="50%" y1="0%" x2="50%" y2="100%" id="ccchaos-grad"><stop stop-color="hsl(230, 55%, 50%)" stop-opacity="1" offset="0%"></stop><stop stop-color="hsl(230, 55%, 70%)" stop-opacity="1" offset="100%"></stop></linearGradient></defs><g stroke-width="2" stroke="url(#ccchaos-grad)" fill="none" stroke-linecap="round"><path d="M396.03 154.74C404.03 152.03 412.1 150.74 420.23 150.93 428.37 152.23 436.58 154.96 444.84 158.95 453.13 163.72 461.47 169.35 469.85 175.59 478.27 181.93 486.72 188.39 495.2 194.77 503.7 200.62 512.2 206.08 520.68 211.07 529.16 215.25 537.59 218.93 545.91 222.17 554.19 224.68 562.31 226.92 570.22 229.02 578.01 230.71 585.5 232.51 592.63 234.54 599.55 236.5 606.01 238.89 611.93 241.79 617.54 244.86 622.52 248.53 626.81 252.79 630.7 257.34 633.82 262.49 636.13 268.17 638.01 274.14 639.05 280.58 639.26 287.43 639.07 294.49 638.1 301.86 636.37 309.47 634.4 317.21 631.79 325.1 628.64 333.08 625.47 341.12 621.93 349.19 618.12 357.21 614.59 365.26 610.99 373.23 607.42 381.07 604.41 388.92 601.64 396.45 599.18 403.66 597.38 410.86 595.89 417.77 594.72 424.39 594.17 431.05 593.86 437.49 593.72 443.76 594.07 450.15 594.47 456.47 594.83 462.8 595.48 469.39 595.94 476.13 596.15 483.1 596.44 490.5 596.35 498.26 595.82 506.47 595.21 515.19 594.07 524.4 592.38 534.11 590.52 544.24 588.06 554.74 585.02 565.48 581.76 576.29 577.91 586.98 573.51 597.29 568.9 607.04 563.77 615.91 558.16 623.56 552.38 629.97 546.17 634.73 539.57 637.62 532.86 638.95 525.8 638.37 518.47 635.93 511.06 632.35 503.41 627.45 495.57 621.63 487.69 615.88 479.64 610.19 471.46 605.08 463.28 601.5 454.98 599.39 446.61 599.06 438.24 601.04 429.8 604.93 421.31 610.56 412.82 617.87 404.48 625.84 396.31 633.82 388.13 641.71 380.09 648.42 372.22 653.46 364.33 656.92 356.58 658.07 348.99 656.85 341.36 653.64 333.87 648.24 326.51 640.94 319.11 632.31 311.84 622.5 304.7 611.95 297.5 601.16 290.42 590.37 283.48 579.92 276.48 570.13 269.6 561.11 262.88 552.95 256.1 545.85 249.47 539.65 243.01 534.27 236.52 529.85 230.21 526.02 224.13 522.6 218.04 519.81 212.19 517.12 206.61 514.38 198.46 510.52 183.95 501 177.73 494.95 173.86 490.65 170.43 485.76 167.47 480.31 164.69 474.76 162.41 468.67 160.66 462.08 159.1 455.42 158.07 448.32 157.62 440.79 157.34 433.24 157.62 425.32 158.48 417.03 159.49 408.75 161.01 400.32 163.02 391.77 165.11 383.23 167.64 374.56 170.57 365.79 173.52 357.01 176.82 348.11 180.43 339.11 184 330.11 187.86 321.01 191.95 311.86 195.95 302.73 200.18 293.58 204.59 284.49 208.88 275.52 213.34 266.69 217.97 258.11 222.45 249.81 227.09 241.89 231.89 234.49 236.53 227.54 241.34 221.26 246.3 215.75 251.13 210.82 256.13 206.75 261.31 203.59 268.99 200.08 285.19 197.4 293.75 197.51 299.46 197.49 305.39 197.5 311.55 197.34 317.67 196.44 324.02 195.07 330.6 193.13 337.15 190.2 343.95 186.66 350.98 182.58 358 177.75 365.26 172.71 372.77 167.7 380.27 162.68 388.02 158.25 396.02 154.74" stroke-dasharray="0 0" transform="rotate(0, 400, 400)" opacity="0.55"></path><path d="M399.62 163.5C407.38 160.83 415.21 159.5 423.1 159.56 430.99 160.67 438.95 163.15 446.96 166.85 454.98 171.32 463.06 176.67 471.16 182.67 479.29 188.83 487.44 195.22 495.59 201.6 503.75 207.57 511.9 213.25 520 218.53 528.08 223.1 536.08 227.2 543.95 230.87 551.76 233.83 559.39 236.47 566.78 238.91 574.04 240.87 580.99 242.83 587.56 244.91 596.87 247.91 612.5 255.84 618.55 261.08 623.34 267.14 628.65 282.19 629.1 291.03 628.8 297.24 627.78 303.81 626.08 310.65 624.18 317.62 621.7 324.8 618.71 332.13 615.74 339.52 612.42 347 608.85 354.51 605.55 362.05 602.16 369.59 598.79 377.09 595.92 384.59 593.26 391.87 590.85 398.92 589.05 405.98 587.51 412.85 586.24 419.53 585.55 426.28 585.07 432.91 584.73 439.47 584.86 446.17 585.03 452.9 585.18 459.72 585.61 466.81 585.89 474.1 585.95 481.66 586.13 489.59 585.96 497.89 585.41 506.58 584.83 515.67 583.77 525.15 582.22 534.98 580.54 545.06 578.32 555.33 575.56 565.64 572.63 575.81 569.15 585.68 565.16 594.99 560.98 603.61 556.31 611.23 551.17 617.59 545.88 622.72 540.17 626.26 534.07 628.06 527.86 628.47 521.31 627.18 514.47 624.29 507.56 620.51 500.38 615.67 492.99 610.12 485.57 604.8 477.95 599.65 470.19 595.14 462.41 592.12 454.5 590.47 446.49 590.46 438.47 592.57 430.37 596.4 422.19 601.79 414.01 608.73 405.95 616.26 398.03 623.83 390.1 631.39 382.3 637.91 374.64 642.97 366.96 646.67 359.41 648.29 351.99 647.75 344.54 645.4 337.21 640.96 330 634.7 322.76 627.09 315.63 618.21 308.63 608.45 301.58 598.27 294.65 587.87 287.84 577.58 280.99 567.7 274.26 558.35 267.68 549.69 261.06 541.89 254.59 534.87 248.29 528.6 241.98 523.23 235.85 518.46 229.93 514.18 224.03 510.55 218.37 507.15 212.98 503.84 205.12 499.35 191.16 489.47 185.2 483.64 179.86 477.32 171.69 462.08 168.97 453.17 167.5 447.01 166.56 440.4 166.16 433.34 165.93 426.26 166.25 418.76 167.11 410.87 168.13 402.97 169.64 394.88 171.61 386.64 173.68 378.4 176.17 370 179.03 361.48 181.93 352.97 185.17 344.33 188.71 335.62 192.22 326.92 196 318.17 200.02 309.4 203.97 300.7 208.13 292.05 212.47 283.52 216.7 275.17 221.11 267.03 225.68 259.21 230.11 251.71 234.7 244.66 239.43 238.16 244.03 232.13 248.78 226.76 253.68 222.15 260.92 216.43 276.04 209.66 283.96 208.36 291.93 207.8 308.76 207.63 317.65 207.07 323.6 205.87 329.77 204.19 336.17 201.95 342.53 198.8 349.12 195.09 355.94 190.91 362.75 186.07 369.79 181.08 377.07 176.16 384.34 171.26 391.85 166.94 399.61 163.51" stroke-dasharray="0 0" transform="rotate(4.04, 400, 400)" opacity="0.44"></path><path d="M403.23 172.27C410.74 169.63 418.32 168.26 425.95 168.21 433.58 169.13 441.28 171.36 449.01 174.77 456.75 178.93 464.53 183.98 472.33 189.71 480.14 195.66 487.96 201.91 495.75 208.24 503.55 214.28 511.32 220.11 519 225.63 526.66 230.53 534.22 235.02 541.61 239.1 548.94 242.51 556.07 245.59 562.93 248.41 569.66 250.73 576.07 252.95 582.09 255.2 590.59 258.27 604.68 265.61 610.04 270.24 614.24 275.47 618.69 288.52 618.89 296.26 618.51 301.71 617.47 307.53 615.81 313.66 613.98 319.9 611.63 326.4 608.83 333.1 606.04 339.86 602.95 346.77 599.61 353.8 596.52 360.84 593.34 367.97 590.16 375.14 587.43 382.32 584.87 389.38 582.53 396.32 580.73 403.27 579.15 410.12 577.81 416.9 576.99 423.74 576.34 430.57 575.83 437.42 575.76 444.41 575.72 451.5 575.66 458.75 575.89 466.23 575.98 473.95 575.89 481.95 575.93 490.24 575.68 498.86 575.09 507.81 574.49 517.02 573.49 526.5 572.04 536.19 570.5 545.97 568.47 555.76 565.96 565.4 563.31 574.76 560.15 583.65 556.51 591.84 552.72 599.27 548.46 605.64 543.76 610.72 536.3 615.86 519.3 616.62 509.89 612.49 503.45 608.62 496.75 603.91 489.81 598.71 482.83 593.85 475.65 589.26 468.3 585.33 460.93 582.83 453.41 581.61 445.76 581.9 438.11 584.11 430.35 587.87 422.49 593.03 414.64 599.59 406.87 606.7 399.22 613.86 391.56 621.07 384.01 627.39 376.57 632.42 369.11 636.3 361.77 638.32 354.54 638.39 347.28 636.82 340.13 633.31 333.1 628.04 326.03 621.45 319.07 613.54 312.23 604.66 305.35 595.21 298.57 585.35 291.93 575.4 285.24 565.63 278.69 556.19 272.27 547.23 265.83 538.93 259.53 531.28 253.41 524.29 247.29 518.07 241.35 512.45 235.63 507.33 229.93 502.85 224.47 498.69 219.27 494.72 211.72 489.39 198.35 478.61 192.66 472.7 187.58 466.5 179.84 452.01 177.28 443.62 175.92 437.85 175.05 431.64 174.7 424.98 174.53 418.31 174.87 411.22 175.74 403.73 176.76 396.23 178.26 388.52 180.2 380.63 182.23 372.75 184.66 364.71 187.47 356.55 190.3 348.41 193.47 340.16 196.94 331.86 200.38 323.6 204.09 315.33 208.03 307.09 211.9 298.97 215.99 290.95 220.26 283.11 224.43 275.49 228.77 268.14 233.27 261.17 237.65 254.53 242.18 248.38 246.85 242.81 251.39 237.66 256.09 233.18 260.92 229.42 268.06 224.81 282.96 219.63 290.73 218.74 298.56 218.29 315.02 217.66 323.69 216.64 329.48 215.13 335.49 213.14 341.7 210.64 347.88 207.28 354.28 203.43 360.9 199.17 367.5 194.34 374.33 189.41 381.38 184.59 388.42 179.82 395.7 175.63 403.22 172.27" stroke-dasharray="0 0" transform="rotate(8.08, 400, 400)" opacity="0.56"></path><path d="M406.75 181.03C414.01 178.44 421.33 177.04 428.68 176.87 436.05 177.62 443.45 179.6 450.89 182.71 458.33 186.56 465.8 191.3 473.26 196.72 480.73 202.43 488.19 208.49 495.61 214.72 503.02 220.75 510.38 226.67 517.63 232.37 524.85 237.54 531.94 242.37 538.86 246.83 545.69 250.68 552.31 254.19 558.65 257.43 564.85 260.14 570.73 262.71 576.22 265.22 583.94 268.55 596.57 275.77 601.29 280.04 604.96 284.7 608.64 296.18 608.66 303.02 607.68 310.4 602.71 327 598.97 336.08 596.38 342.25 593.49 348.64 590.38 355.21 587.5 361.8 584.52 368.54 581.52 375.42 578.94 382.3 576.48 389.16 574.21 395.99 572.42 402.84 570.82 409.69 569.41 416.55 568.48 423.47 567.69 430.46 567.02 437.54 566.76 444.75 566.52 452.11 566.27 459.67 566.3 467.41 566.21 475.39 565.97 483.63 565.87 492.08 565.51 500.8 564.86 509.74 564.24 518.83 563.26 528.08 561.88 537.37 560.44 546.61 558.57 555.71 556.26 564.5 553.84 572.9 550.96 580.71 547.64 587.72 542.24 596.51 529.16 606.5 521.57 607.22 516.29 606.23 510.68 603.97 504.76 600.57 498.78 596.72 492.53 592.23 486.03 587.41 479.49 583.03 472.74 579 465.79 575.64 458.84 573.63 451.71 572.81 444.43 573.36 437.16 575.65 429.75 579.34 422.22 584.26 414.7 590.47 407.24 597.16 399.86 603.92 392.49 610.77 385.19 616.86 377.99 621.83 370.78 625.83 363.66 628.19 356.64 628.79 349.6 627.93 342.65 625.27 335.8 620.95 328.93 615.36 322.16 608.45 315.49 600.49 308.8 591.87 302.21 582.69 295.74 573.23 289.25 563.77 282.88 554.44 276.65 545.4 270.41 536.82 264.31 528.74 258.39 521.21 252.47 514.31 246.74 507.95 241.23 502.09 235.74 496.81 230.49 491.9 225.51 487.25 220.59 483.02 215.96 478.9 211.66 474.78 205.52 468.9 195.3 456.37 191.31 449.42 188 442.15 183.94 425.66 183.26 416.39 183.14 410.08 183.5 403.36 184.38 396.26 185.39 389.15 186.87 381.84 188.77 374.36 190.76 366.89 193.14 359.28 195.87 351.57 198.64 343.89 201.74 336.13 205.12 328.36 208.49 320.65 212.11 312.98 215.96 305.39 219.76 297.94 223.77 290.65 227.96 283.6 232.06 276.78 236.33 270.28 240.75 264.2 245.07 258.44 249.53 253.18 254.13 248.5 260.93 242.36 275.06 233.87 282.39 231.47 289.72 229.94 305.04 228.79 313.05 228.53 318.39 227.93 323.9 227.14 329.6 226.04 335.25 224.21 341.1 221.94 347.14 219.17 353.15 215.64 359.36 211.67 365.78 207.36 372.18 202.56 378.79 197.71 385.62 193.01 392.44 188.37 399.48 184.3 406.74 181.04" stroke-dasharray="0 0" transform="rotate(12.12, 400, 400)" opacity="0.31"></path><path d="M410.1 189.8C417.09 187.26 424.14 185.82 431.21 185.55 438.29 186.13 445.4 187.87 452.51 190.69 459.64 194.22 466.77 198.62 473.88 203.72 480.99 209.15 488.07 214.99 495.09 221.06 502.1 227.02 509.03 232.96 515.84 238.76 522.6 244.14 529.22 249.24 535.64 254.04 541.99 258.28 548.09 262.21 553.92 265.86 562.29 270.48 576.93 278.54 582.99 282.37 591.86 290.29 598.54 304.93 598.4 311.08 597.38 317.67 592.64 332.66 589.15 340.97 586.74 346.63 584.06 352.55 581.17 358.72 578.49 364.89 575.71 371.28 572.89 377.89 570.44 384.5 568.1 391.17 565.89 397.89 564.12 404.63 562.51 411.44 561.05 418.34 560.02 425.3 559.11 432.38 558.3 439.6 557.86 446.92 557.44 454.42 557.01 462.13 556.85 469.96 556.59 478.02 556.2 486.29 555.95 494.68 555.49 503.25 554.77 511.96 554.1 520.7 553.11 529.46 551.77 538.15 550.4 546.66 548.65 554.9 546.5 562.71 544.27 570.05 541.63 576.72 538.58 582.53 533.64 589.56 521.65 596.46 514.66 596.07 509.81 594.6 504.62 592.05 499.13 588.58 493.58 584.84 487.76 580.64 481.69 576.24 475.58 572.37 469.24 568.88 462.7 566.07 456.15 564.52 449.41 564.07 442.51 564.86 435.61 567.21 428.56 570.8 421.37 575.49 414.19 581.35 407.05 587.64 399.97 593.99 392.89 600.48 385.87 606.33 378.92 611.2 371.98 615.27 365.1 617.9 358.3 618.95 351.49 618.73 344.76 616.86 338.13 613.43 331.47 608.8 324.9 602.88 318.44 595.87 311.96 588.15 305.57 579.75 299.3 570.93 293.02 561.95 286.86 552.91 280.84 544 274.81 535.37 268.93 527.08 263.23 519.2 257.54 511.81 252.03 504.89 246.74 498.41 241.48 492.44 236.46 486.84 231.7 481.55 227.01 476.66 222.6 471.94 218.51 467.32 212.69 460.77 203.02 447.45 199.27 440.39 196.17 433.14 192.42 417.11 191.83 408.25 191.74 402.22 192.14 395.84 193.01 389.12 194.02 382.39 195.47 375.5 197.33 368.46 199.27 361.45 201.59 354.32 204.25 347.13 206.95 339.97 209.96 332.79 213.25 325.63 216.53 318.56 220.07 311.56 223.82 304.7 227.54 297.99 231.45 291.49 235.55 285.27 239.57 279.28 243.76 273.64 248.1 268.44 254.54 261.33 267.96 250.25 274.92 246.4 281.87 243.52 296.3 240.46 303.8 239.89 311.33 239.24 327.09 237.21 335.34 235.23 340.85 233.1 346.54 230.55 352.41 227.56 358.25 223.87 364.28 219.82 370.5 215.49 376.7 210.74 383.1 205.98 389.7 201.4 396.29 196.91 403.09 192.98 410.09 189.8" stroke-dasharray="0 0" transform="rotate(16.16, 400, 400)" opacity="0.18"></path><path d="M413.18 198.56C419.91 196.07 426.67 194.62 433.45 194.25 440.22 194.66 447.01 196.17 453.8 198.7 460.59 201.91 467.37 205.97 474.11 210.73 480.84 215.85 487.53 221.42 494.14 227.27 500.73 233.11 507.22 239 513.57 244.83 519.88 250.34 526.02 255.65 531.96 260.7 537.81 265.29 543.42 269.6 548.74 273.64 556.37 278.89 569.56 288.03 574.96 292.25 582.75 300.39 588.39 314.41 588.12 320.09 587.1 326.11 582.61 339.84 579.37 347.52 577.14 352.75 574.66 358.28 571.98 364.09 569.49 369.9 566.9 375.99 564.26 382.34 561.94 388.69 559.71 395.16 557.57 401.75 555.84 408.36 554.22 415.09 552.72 421.96 551.61 428.87 550.6 435.95 549.66 443.18 549.06 450.49 548.48 457.98 547.89 465.65 547.55 473.41 547.13 481.34 546.58 489.42 546.2 497.54 545.62 505.76 544.82 514.01 544.08 522.19 543.07 530.29 541.75 538.19 540.42 545.83 538.76 553.09 536.73 559.84 533.44 568.83 524.86 581.62 519.59 584.87 513.84 585.81 500.53 581.37 493.04 576.59 487.91 573.04 482.49 569.17 476.83 565.23 471.13 561.86 465.2 558.91 459.06 556.62 452.9 555.5 446.55 555.39 440.03 556.38 433.5 558.78 426.81 562.27 419.98 566.73 413.14 572.24 406.33 578.13 399.55 584.09 392.78 590.22 386.05 595.8 379.38 600.55 372.7 604.64 366.08 607.46 359.53 608.9 352.98 609.23 346.49 608.07 340.08 605.47 333.67 601.76 327.33 596.79 321.08 590.75 314.83 583.96 308.67 576.41 302.63 568.34 296.58 559.98 290.65 551.42 284.85 542.83 279.06 534.35 273.42 526.06 267.95 518.05 262.5 510.39 257.23 503.09 252.18 496.16 247.17 489.66 242.38 483.5 237.86 477.64 233.4 472.15 229.22 466.88 225.35 461.76 219.84 454.49 210.75 440.21 207.24 432.91 204.34 425.55 200.9 409.73 200.4 401.18 200.36 395.39 200.77 389.31 201.64 382.95 202.64 376.59 204.06 370.11 205.87 363.55 207.76 357 210.02 350.39 212.59 343.76 215.22 337.18 218.14 330.61 221.33 324.12 224.52 317.72 227.96 311.44 231.61 305.35 235.23 299.4 239.05 293.71 243.04 288.32 246.98 283.14 251.07 278.34 255.32 273.96 261.64 268.02 274.81 259 281.65 255.96 288.48 253.66 302.65 251.12 310.01 250.47 317.4 249.56 332.81 246.67 340.85 244.19 346.22 241.79 351.75 238.98 357.45 235.79 363.13 231.98 368.97 227.87 374.99 223.54 380.99 218.86 387.18 214.22 393.54 209.78 399.9 205.44 406.44 201.65 413.17 198.57" stroke-dasharray="0 0" transform="rotate(20.200000000000003, 400, 400)" opacity="0.42"></path><path d="M415.93 207.33C422.38 204.9 428.84 203.43 435.31 202.97 441.77 203.23 448.24 204.51 454.68 206.75 461.12 209.64 467.53 213.35 473.89 217.75 480.23 222.54 486.52 227.8 492.7 233.4 505 244.64 516.79 256.02 527.78 266.84 538.43 276.12 548.03 284.48 556.25 292.05 563.84 298.15 569.79 304.09 573.86 310.28 577.81 319.02 576.83 335.31 574.96 341.58 572.62 348.15 566.43 362.84 562.8 370.95 560.5 376.45 558.1 382.25 555.62 388.36 553.45 394.46 551.32 400.73 549.26 407.15 547.56 413.58 545.95 420.18 544.42 426.93 543.25 433.71 542.15 440.67 541.11 447.78 540.37 454.93 539.64 462.26 538.9 469.72 538.11 484.72 536.9 500.14 535.03 515.45 533.47 530.21 530.83 543.96 527.01 555.74 523.06 565.48 517.73 572.03 511.07 574.66 504.17 574.65 495.95 571.05 486.57 564.63 481.81 561.34 476.78 557.86 471.51 554.4 466.2 551.53 460.66 549.1 454.91 547.29 449.14 546.58 443.18 546.76 437.03 547.92 430.87 550.35 424.54 553.73 418.06 557.96 411.58 563.13 405.1 568.64 398.65 574.22 392.2 579.98 385.77 585.28 379.38 589.87 373 593.93 366.66 596.9 360.37 598.65 354.09 599.46 347.86 598.92 341.7 597.07 329.39 590.39 317.35 579.35 305.74 565.34 294.16 549.84 283.04 533.53 272.57 517.51 262.23 502.35 252.63 488.3 243.99 475.44 235.65 463.82 228.41 452.94 222.49 442.46 218.49 434.95 212.54 419.8 210.66 411.98 209.4 404.04 209.2 387.22 210.28 378.31 211.27 372.3 212.65 366.23 214.4 360.14 216.24 354.06 218.42 347.98 220.91 341.93 223.45 335.93 226.28 330 229.36 324.19 232.45 318.47 235.78 312.91 239.32 307.58 246.32 297.31 254.07 288.23 262.4 280.76 270.47 274.08 279.1 269.17 288.18 266.08 296.95 263.32 306.23 261.77 315.97 260.94 325.46 258.94 335.5 256.45 346.07 252.92 351.3 250.25 356.68 247.23 362.21 243.87 367.71 239.97 373.36 235.83 379.18 231.53 384.98 226.94 390.94 222.43 397.07 218.13 403.18 213.96 409.47 210.31 415.92 207.33" stroke-dasharray="0 0" transform="rotate(24.24, 400, 400)" opacity="0.86"></path><path d="M418.27 216.1C430.59 211.95 442.91 211.56 455.08 214.85 467.24 220.56 479.2 229.08 490.74 239.46 502.18 250.3 513.05 261.53 523.1 272.48 532.83 282.22 541.5 291.21 548.85 299.46 555.63 306.35 560.88 312.95 564.38 319.59 567.21 325.49 568.28 331.98 567.57 339.3 566.44 346.39 563.82 354.58 559.91 363.91 556.25 373.19 551.85 383.69 546.99 395.42 543.19 407.14 539.53 419.61 536.16 432.66 534.03 445.8 532.03 459.57 530.05 473.73 528.95 487.85 527.47 502.09 525.42 515.9 523.71 528.95 521.06 540.71 517.36 550.34 513.61 558.03 508.64 562.67 502.44 563.8 496.07 562.82 488.47 558.89 479.78 552.76 470.93 547.07 461.06 541.71 450.32 538.08 439.52 538.44 427.93 542.19 415.68 549.2 403.44 559.54 391.15 570.14 378.98 579.18 366.83 586.58 354.8 589.73 343.02 588.25 331.27 583.22 319.77 574.04 308.68 561.82 297.65 547.86 287.07 532.68 277.12 517.31 267.32 502.33 258.25 488.05 250.11 474.74 242.27 462.4 235.49 450.81 229.97 439.77 224.9 429.31 221.2 418.89 219.04 408.31 217.39 397.87 217.32 386.97 218.91 375.6 220.95 364.23 224.46 352.93 229.21 341.95 234.13 331.12 240.12 320.85 246.96 311.5 253.74 302.59 261.26 294.91 269.35 288.75 277.22 283.16 285.64 279.11 294.49 276.58 303.08 274.07 312.16 272.43 321.65 271.2 330.93 268.67 340.72 265.54 350.98 261.39 361.1 255.07 371.79 247.61 383 239.45 394.17 230.4 405.94 222.22 418.26 216.1" stroke-dasharray="0 0" transform="rotate(28.28, 400, 400)" opacity="0.48"></path><path d="M420.13 224.86C431.85 220.8 443.51 220.2 454.95 223 466.37 228.05 477.53 235.82 488.23 245.49 498.81 255.8 508.79 266.74 517.93 277.65 526.77 287.68 534.57 297.14 541.11 305.97 547.15 313.6 551.76 320.87 554.76 328.02 557.21 334.42 558.06 341.19 557.3 348.58 556.23 355.66 553.82 363.65 550.23 372.66 546.9 381.59 542.87 391.65 538.35 402.88 534.78 414.12 531.26 426.05 527.93 438.51 525.69 451 523.51 463.97 521.33 477.13 519.95 490.11 518.22 502.94 516 515.04 514.13 526.28 511.44 536.04 507.84 543.6 504.24 549.43 499.55 552.44 493.76 552.38 487.85 550.73 480.81 546.7 472.74 541.02 464.55 536.11 455.39 531.71 445.37 529 435.29 529.9 424.43 533.76 412.9 540.43 401.37 550.06 389.76 559.93 378.22 568.48 366.71 575.79 355.28 579.44 344.09 579.02 332.92 575.49 322 568.08 311.47 557.65 301.02 545.39 291.01 531.58 281.61 517.18 272.39 502.76 263.86 488.66 256.24 475.26 248.91 462.54 242.59 450.51 237.48 439.09 232.78 428.16 229.38 417.47 227.43 406.89 225.96 396.45 225.97 385.84 227.55 375.07 229.54 364.31 232.92 353.88 237.47 343.99 242.2 334.21 247.96 325.16 254.54 317.11 261.08 309.38 268.34 302.87 276.16 297.77 283.81 293 291.98 289.55 300.59 287.3 308.97 284.81 317.81 282.91 327.03 281.16 336.08 278.07 345.58 274.3 355.51 269.59 365.32 262.95 375.64 255.37 386.41 247.31 397.14 238.56 408.4 230.73 420.12 224.87" stroke-dasharray="0 0" transform="rotate(32.32, 400, 400)" opacity="0.88"></path><path d="M421.48 233.63C432.58 229.66 443.55 228.87 454.26 231.21 464.94 235.61 475.3 242.62 485.15 251.53 494.89 261.21 504 271.71 512.26 282.41 520.26 292.53 527.26 302.29 533.05 311.55 538.41 319.8 542.45 327.69 545.02 335.37 547.14 342.32 547.83 349.47 547.06 357.03 546.07 364.26 543.87 372.21 540.6 381 537.58 389.69 533.89 399.37 529.72 410.09 526.37 420.82 523 432.12 519.72 443.81 517.41 455.49 515.09 467.46 512.74 479.4 511.11 491.06 509.17 502.31 506.78 512.61 504.76 522.04 502.01 529.88 498.47 535.58 492.75 540.62 476.3 536.51 465.54 529.47 457.95 525.36 449.45 521.9 440.12 520.03 430.74 521.41 420.59 525.34 409.79 531.66 398.98 540.61 388.05 549.74 377.17 557.78 366.32 564.91 355.53 568.93 344.94 569.39 334.4 567.21 324.09 561.45 314.16 552.78 304.31 542.27 294.9 530 286.09 516.83 277.44 503.32 269.48 489.78 262.39 476.65 255.58 463.93 249.73 451.75 245.01 440.19 240.69 429 237.59 418.18 235.85 407.66 234.54 397.27 234.62 386.97 236.18 376.77 238.12 366.58 241.36 356.96 245.71 348.04 250.24 339.2 255.74 331.21 262.04 324.26 268.32 317.51 275.3 311.92 282.84 307.59 290.23 303.37 298.14 300.25 306.46 298.04 314.6 295.4 323.17 293.09 332.11 290.75 340.89 287.08 350.09 282.73 359.67 277.52 369.14 270.63 379.06 263.01 389.37 255.1 399.65 246.69 410.37 239.23 421.48 233.63" stroke-dasharray="0 0" transform="rotate(36.36, 400, 400)" opacity="0.77"></path><path d="M422.27 242.39C432.74 238.54 443.02 237.58 452.98 239.47 462.91 243.25 472.48 249.49 481.51 257.59 490.43 266.56 498.7 276.5 506.15 286.82 513.35 296.84 519.6 306.7 524.71 316.21 529.47 324.92 533 333.3 535.2 341.45 537.05 348.93 537.6 356.48 536.85 364.28 535.95 371.73 533.96 379.72 531 388.35 528.29 396.88 524.93 406.21 521.09 416.4 517.96 426.58 514.74 437.17 511.55 447.97 509.18 458.72 506.77 469.54 504.28 480.11 502.45 490.36 500.31 499.98 497.78 508.5 494.21 519.25 483.76 529.55 476.5 528.36 471.33 526.16 465.24 522.54 458.27 518.14 451.23 514.86 443.34 512.29 434.67 511.18 425.96 512.96 416.51 516.93 406.42 522.9 396.32 531.17 386.1 539.59 375.9 547.1 365.72 553.98 355.59 558.22 345.64 559.41 335.75 558.38 326.08 554.13 316.77 547.13 307.56 538.37 298.77 527.75 290.56 515.99 282.52 503.67 275.13 491.01 268.57 478.5 262.28 466.14 256.9 454.16 252.58 442.71 248.64 431.53 245.82 420.76 244.28 410.41 243.14 400.17 243.29 390.2 244.81 380.55 246.69 370.89 249.79 361.99 253.93 353.92 258.24 345.89 263.48 338.77 269.47 332.68 275.48 326.69 282.16 321.76 289.37 317.91 296.49 314.01 304.1 310.96 312.11 308.59 319.97 305.64 328.24 302.85 336.85 299.89 345.34 295.66 354.2 290.78 363.39 285.17 372.51 278.13 382.01 270.55 391.83 262.84 401.63 254.81 411.8 247.72 422.27 242.39" stroke-dasharray="0 0" transform="rotate(40.400000000000006, 400, 400)" opacity="0.30"></path><path d="M422.49 251.16C432.31 247.43 441.89 246.33 451.11 247.8 460.3 250.98 469.08 256.46 477.31 263.74 485.44 271.93 492.92 281.18 499.59 290.98 506.06 300.7 511.62 310.46 516.12 320.01 520.33 328.98 523.42 337.7 525.31 346.18 526.93 354.1 527.38 362.01 526.68 370.01 525.88 377.7 524.11 385.75 521.44 394.23 519.02 402.63 515.98 411.62 512.45 421.24 509.55 430.85 506.49 440.66 503.39 450.47 501.01 460.22 498.53 469.82 495.95 478.96 493.94 487.78 491.65 495.81 489.01 502.66 485.27 511.08 474.97 517.89 468.06 516.05 463.18 513.91 457.49 510.73 451 507.07 444.47 504.61 437.15 502.87 429.11 502.45 421.04 504.56 412.27 508.52 402.88 514.13 393.5 521.75 383.98 529.47 374.46 536.43 364.98 542.99 355.53 547.34 346.25 549.1 337.04 549.03 328.02 546.11 319.37 540.67 310.81 533.61 302.65 524.66 295.05 514.44 287.63 503.5 280.82 491.99 274.8 480.37 269.03 468.71 264.11 457.24 260.2 446.19 256.61 435.28 254.08 424.76 252.74 414.72 251.75 404.77 251.96 395.18 253.45 386.06 255.25 376.93 258.2 368.66 262.12 361.29 266.2 353.92 271.16 347.48 276.85 342.02 282.56 336.56 288.91 332.04 295.78 328.42 302.58 324.61 309.87 321.46 317.53 318.76 325.08 315.42 333.02 312.08 341.27 308.52 349.42 303.78 357.91 298.46 366.69 292.54 375.41 285.44 384.46 277.97 393.78 270.53 403.07 262.9 412.67 256.21 422.49 251.16" stroke-dasharray="0 0" transform="rotate(44.44, 400, 400)" opacity="0.53"></path><path d="M422.13 259.93C431.29 256.34 440.16 255.11 448.64 256.2 457.1 258.81 465.12 263.53 472.59 269.98 479.95 277.34 486.69 285.81 492.64 294.95 498.43 304.2 503.36 313.65 507.31 323.04 511.04 332.06 513.75 340.91 515.38 349.55 516.8 357.77 517.2 365.91 516.56 374.04 515.87 381.91 514.3 389.98 511.93 398.3 509.77 406.54 507.04 415.17 503.82 424.18 501.13 433.19 498.24 442.17 495.26 450.96 492.89 459.67 490.38 468.04 487.74 475.79 484.4 486.52 476.58 501.61 471.7 504.97 466.41 505.81 452.54 500.49 443.83 496.3 437.76 494.62 430.98 493.65 423.54 493.83 416.07 496.21 407.96 500.11 399.28 505.37 390.59 512.35 381.78 519.39 372.96 525.79 364.18 531.98 355.42 536.33 346.83 538.49 338.3 539.21 329.97 537.43 321.98 533.39 314.09 527.91 306.59 520.6 299.61 511.95 292.8 502.53 286.58 492.35 281.09 481.86 275.84 471.17 271.38 460.49 267.86 450.07 264.63 439.7 262.38 429.66 261.21 420.07 260.37 410.54 260.63 401.42 262.08 392.81 263.81 384.21 266.6 376.49 270.29 369.68 274.14 362.85 278.81 356.9 284.16 351.84 289.55 346.71 295.56 342.39 302.06 338.78 308.52 334.9 315.45 331.49 322.73 328.37 329.93 324.58 337.5 320.71 345.35 316.59 353.13 311.42 361.23 305.77 369.56 299.65 377.85 292.58 386.42 285.3 395.2 278.17 403.97 270.96 412.97 264.69 422.13 259.93" stroke-dasharray="0 0" transform="rotate(48.48, 400, 400)" opacity="0.23"></path><path d="M421.2 268.69C429.68 265.26 437.85 263.93 445.61 264.67 453.35 266.75 460.63 270.75 467.36 276.35 474.01 282.85 480.04 290.48 485.34 298.85 490.49 307.47 494.85 316.42 498.33 325.44 501.62 334.28 504.01 343.05 505.43 351.65 506.7 359.96 507.05 368.18 506.49 376.31 505.91 384.25 504.55 392.25 502.45 400.34 500.56 408.36 498.11 416.58 495.19 424.96 492.71 433.34 490 441.48 487.16 449.25 484.82 456.95 482.31 464.13 479.65 470.6 472.17 485.25 458.14 493.5 451.82 491.48 444.95 488.95 428.04 484.77 418.04 485.32 411.15 487.9 403.68 491.71 395.69 496.6 387.69 502.96 379.58 509.35 371.47 515.18 363.39 520.94 355.34 525.19 347.45 527.62 339.62 528.94 331.98 528.12 324.66 525.3 317.45 521.25 310.6 515.48 304.25 508.38 298.06 500.52 292.42 491.78 287.46 482.55 282.72 473.05 278.72 463.37 275.57 453.81 272.69 444.21 270.7 434.83 269.72 425.84 269.01 416.87 269.32 408.29 270.71 400.21 272.36 392.13 274.98 384.91 278.43 378.53 282.04 372.12 286.41 366.51 291.41 361.67 296.47 356.71 302.12 352.41 308.22 348.66 314.32 344.59 320.85 340.84 327.72 337.26 334.54 333.03 341.7 328.67 349.12 324.07 356.49 318.58 364.14 312.7 372 306.49 379.82 299.55 387.88 292.53 396.1 285.77 404.32 279.01 412.71 273.15 421.2 268.69" stroke-dasharray="0 0" transform="rotate(52.52, 400, 400)" opacity="0.24"></path><path d="M419.72 277.46C427.53 274.19 435 272.79 442.05 273.22 449.08 274.8 455.65 278.11 461.69 282.9 467.66 288.52 473.03 295.26 477.73 302.78 482.31 310.63 486.16 318.92 489.21 327.39 492.12 335.82 494.22 344.29 495.47 352.64 496.62 360.83 496.95 368.93 496.48 376.9 496.01 384.75 494.84 392.56 493.01 400.32 491.36 408.05 489.19 415.8 486.55 423.52 484.29 431.24 481.76 438.55 479.07 445.35 475.56 455.14 468.13 470.76 464.05 476.01 455.1 480.43 437.64 477.77 430.05 475.75 424.82 475.48 419.02 475.8 412.7 476.92 406.37 479.63 399.53 483.31 392.21 487.84 384.89 493.6 377.47 499.34 370.07 504.6 362.69 509.91 355.35 513.97 348.16 516.54 341.03 518.28 334.09 518.22 327.46 516.42 320.92 513.63 314.73 509.26 309.01 503.62 303.43 497.27 298.36 490 293.93 482.12 289.69 473.92 286.12 465.41 283.34 456.85 280.79 448.2 279.06 439.65 278.24 431.38 277.67 423.1 278.01 415.13 279.35 407.59 280.9 400.05 283.35 393.27 286.56 387.24 289.91 381.16 293.97 375.77 298.62 371.02 303.32 366.12 308.58 361.72 314.27 357.74 319.97 353.43 326.08 349.32 332.51 345.29 338.91 340.67 345.63 335.91 352.59 330.95 359.51 325.25 366.68 319.27 374.03 313.09 381.35 306.36 388.87 299.67 396.51 293.32 404.15 287.04 411.91 281.61 419.72 277.46" stroke-dasharray="0 0" transform="rotate(56.56, 400, 400)" opacity="0.76"></path><path d="M417.73 286.22C424.86 283.14 431.63 281.69 438 281.85 444.34 282.97 450.24 285.64 455.62 289.64 460.95 294.4 465.72 300.22 469.86 306.83 473.91 313.81 477.31 321.31 479.99 329.07 482.57 336.9 484.43 344.85 485.54 352.75 486.59 360.59 486.92 368.37 486.54 376.01 486.18 383.58 485.2 391.06 483.62 398.39 482.19 405.71 480.28 412.93 477.92 419.97 475.86 427 473.53 433.52 471 439.43 467.61 447.88 460.26 460.81 456.2 464.93 447.36 468.43 430.66 467 423.6 466.01 418.75 466.34 413.41 467.16 407.62 468.62 401.83 471.39 395.58 474.92 388.93 479.07 382.28 484.25 375.55 489.37 368.84 494.07 362.16 498.89 355.52 502.69 349.05 505.28 342.62 507.28 336.37 507.79 330.42 506.83 324.55 505.08 319.01 501.94 313.91 497.62 308.93 492.69 304.43 486.82 300.5 480.3 296.75 473.44 293.61 466.16 291.18 458.7 288.95 451.13 287.46 443.52 286.8 436.05 286.34 428.56 286.71 421.27 287.98 414.29 289.44 407.31 291.71 400.95 294.67 395.21 297.75 389.42 301.49 384.18 305.77 379.43 310.11 374.53 314.97 370 320.22 365.77 325.5 361.22 331.16 356.77 337.12 352.36 343.07 347.46 349.31 342.42 355.77 337.22 362.21 331.45 368.86 325.49 375.67 319.45 382.46 313.03 389.42 306.74 396.45 300.83 403.49 295.05 410.61 290.07 417.73 286.22" stroke-dasharray="0 0" transform="rotate(60.599999999999994, 400, 400)" opacity="0.20"></path><path d="M415.29 294.99C424.78 291.37 441.82 292.32 449.22 296.61 458.62 305.08 465.93 317.03 470.72 330.69 475.23 344.91 477.25 359.68 476.67 373.96 476.42 381.07 475.61 388.06 474.26 394.86 473.05 401.66 471.39 408.28 469.28 414.63 466.37 423.86 459.72 439.16 456.06 445.02 451.81 452.08 446.44 455.98 440.02 456.77 434.04 457.9 426.51 457.41 417.52 456.65 410.59 458.09 394.77 464.86 385.94 470.3 379.93 474.93 373.88 479.44 367.87 483.59 361.87 487.9 355.94 491.39 350.16 493.89 338.72 497.61 328.07 496.24 318.97 490.38 310.29 482.53 303.44 471.51 299.09 458.98 297.16 452.53 295.9 445.92 295.38 439.31 295.03 432.68 295.42 426.11 296.61 419.71 297.97 413.31 300.05 407.38 302.76 401.91 305.57 396.4 308.98 391.28 312.88 386.53 320.86 376.6 330.65 367.38 341.57 358.44 352.49 347.92 364.49 336.82 376.96 325.61 383.19 319.58 389.55 313.74 395.96 308.32 402.38 303.05 408.85 298.51 415.29 294.99" stroke-dasharray="0 0" transform="rotate(64.64, 400, 400)" opacity="0.47"></path><path d="M412.45 303.75C423.97 299.04 434.13 299.28 442.55 303.83 450.83 310.64 457.24 320.68 461.42 332.46 465.44 344.97 467.29 358.22 466.88 371.15 466.63 384.13 464.53 396.67 460.65 407.99 457.58 419.3 453.36 428.21 448.41 434.48 444.25 440.59 439.05 444.04 432.92 445.08 427.18 446.73 420.12 447.26 411.85 447.67 403.65 450.86 394.05 455.52 383.31 461.54 372.57 470.23 361.77 477.64 351.55 482.42 341.46 486.3 332.14 486.04 324.23 481.96 316.67 476.36 310.76 467.76 307.07 457.41 303.93 446.6 303.17 434.95 305.25 423.37 307.87 411.8 312.99 401.35 319.96 392.01 327.15 382.23 336 372.78 345.87 363.5 355.79 353.05 366.67 342.21 377.94 331.58 389.23 320.4 400.93 310.56 412.45 303.75" stroke-dasharray="0 0" transform="rotate(68.68, 400, 400)" opacity="0.47"></path><path d="M409.29 312.52C419.45 308.14 428.36 307.91 435.68 311.33 442.92 316.59 448.5 324.74 452.15 334.6 455.71 345.23 457.42 356.72 457.17 368.07 457.09 379.57 455.37 390.68 452.02 400.63 449.29 410.58 445.44 418.33 440.85 423.78 436.86 429.22 431.92 432.54 426.16 434.03 420.72 436.24 414.18 437.69 406.65 439.08 399.19 442.69 390.6 447.33 381.11 452.77 371.61 460.31 362.16 466.68 353.28 470.91 344.51 474.7 336.47 475.18 329.7 472.48 323.22 468.7 318.2 462.2 315.14 453.86 312.5 445.13 311.96 435.26 313.88 424.95 316.25 414.63 320.81 404.85 327 395.73 333.39 386.26 341.27 376.87 350.06 367.59 358.92 357.51 368.63 347.24 378.67 337.4 388.74 327.33 399.13 318.59 409.29 312.52" stroke-dasharray="0 0" transform="rotate(72.72, 400, 400)" opacity="0.38"></path><path d="M405.9 321.29C414.72 317.28 422.4 316.69 428.71 319.12 434.95 322.99 439.77 329.36 442.95 337.32 446.08 345.98 447.65 355.58 447.56 365.22 447.61 375.03 446.23 384.6 443.38 393.22 441.01 401.82 437.56 408.59 433.37 413.48 429.65 418.45 425.04 421.8 419.74 423.82 414.68 426.53 408.7 428.74 401.95 430.87 395.26 434.7 387.66 439.17 379.39 444.01 371.12 450.43 362.98 455.79 355.4 459.42 344.49 463.34 327.86 457.31 323.28 448.36 321.12 441.5 320.76 433.31 322.51 424.29 324.62 415.27 328.61 406.31 334.01 397.62 339.6 388.71 346.47 379.7 354.16 370.79 361.91 361.39 370.42 351.95 379.2 343.1 388.01 334.23 397.07 326.6 405.9 321.29" stroke-dasharray="0 0" transform="rotate(76.76, 400, 400)" opacity="0.16"></path><path d="M402.34 330.05C413.1 326.05 429.05 332.25 433.84 340.78 436.56 347.53 437.99 355.2 438.03 363.08 438.19 371.13 437.12 379.1 434.75 386.41 432.72 393.71 429.7 399.61 425.98 404.08 420.51 410.39 406.37 419.05 397.75 423.03 391.86 426.87 385.28 431.03 378.21 435.24 371.14 440.6 364.27 444.99 357.94 447.97 348.84 451.51 335.18 447.86 331.52 441.08 329.8 435.81 329.58 429.16 331.15 421.47 332.98 413.77 336.4 405.78 341.01 397.81 345.77 389.72 351.64 381.42 358.19 373.23 364.82 364.79 372.09 356.42 379.59 348.71 387.12 341.11 394.85 334.61 402.34 330.05" stroke-dasharray="0 0" transform="rotate(80.80000000000001, 400, 400)" opacity="0.90"></path><path d="M398.73 338.82C411.12 333.43 420.21 336.53 424.86 345.15 429.53 355.49 430.16 368.74 426.12 380.81 423 392.88 416.33 401.31 407.85 406.48 399.9 413.46 389.35 420.31 377.59 426.48 365.83 435.78 355.09 440.55 347.59 439.4 340.52 437.54 337.27 429.46 339.78 416.72 343.04 403.98 351.42 389.23 362.2 375.07 373.23 360.56 386.34 346.94 398.73 338.82" stroke-dasharray="0 0" transform="rotate(84.84, 400, 400)" opacity="0.23"></path><path d="M395.15 347.58C404.98 342.94 412.24 344.57 416.04 350.51 419.9 357.59 420.59 367.33 417.48 376.93 414.96 386.53 409.41 394.1 402.36 399.52 395.65 406.15 386.95 412.53 377.55 417.71 363.96 426.65 347.48 423.54 348.41 410.49 351.03 400.38 357.67 388.2 366.21 376.5 374.93 364.81 385.32 354.02 395.15 347.58" stroke-dasharray="0 0" transform="rotate(88.88, 400, 400)" opacity="0.92"></path><path d="M391.7 356.35C401.74 352.91 410.76 364.62 408.85 375.11 406.93 382.29 402.63 388.67 397.15 393.73 391.86 399.47 385.15 404.89 378.08 408.94 362.07 414.11 361.47 391.2 370.25 377.74 376.7 369.05 384.39 361.11 391.7 356.35" stroke-dasharray="0 0" transform="rotate(92.92, 400, 400)" opacity="0.41"></path><path d="M388.46 365.11C398.13 360.34 403.2 365.93 400.22 375.51 397.79 385.09 388.63 395.13 379.18 400.18 369.73 407.17 363.46 405.72 365.68 395.84 368.42 385.95 378.79 371.74 388.46 365.11" stroke-dasharray="0 0" transform="rotate(96.96, 400, 400)" opacity="0.66"></path></g></svg>