<?xml version="1.0" standalone="no"?>
<!DOCTYPE svg PUBLIC "-//W3C//DTD SVG 20010904//EN" "http://www.w3.org/TR/2001/REC-SVG-20010904/DTD/svg10.dtd">
<!-- Created using Krita: https://krita.org -->
<svg xmlns="http://www.w3.org/2000/svg" 
    xmlnsXlink="http://www.w3.org/1999/xlink"
    xmlnsKrita="http://krita.org/namespaces/svg/krita"
    xmlnsSodipodi="http://sodipodi.sourceforge.net/DTD/sodipodi-0.dtd"
    width="388.8pt"
    height="388.8pt"
    viewBox="0 0 388.8 388.8">
<defs/>
<path id="shape0" transform="matrix(0.999999948194347 0 0 0.999999948194347 11.7899993813436 11.7899993813436)" fill="#c2c2c2" fill-rule="evenodd" stroke="#000000" stroke-opacity="0" stroke-width="0" stroke-linecap="square" stroke-linejoin="bevel" d="M365.22 182.61C365.22 81.7573 283.463 6.17524e-15 182.61 0C81.7573 -6.17524e-15 1.23505e-14 81.7573 0 182.61C-1.23505e-14 283.463 81.7573 365.22 182.61 365.22C283.463 365.22 365.22 283.463 365.22 182.61Z"/><circle id="shape0" transform="translate(126.36, 59.0400005736351)" r="68.04" cx="68.04" cy="68.04" fill="#ffffff" fill-rule="evenodd" stroke="#000000" stroke-opacity="0" stroke-width="0" stroke-linecap="square" stroke-linejoin="bevel"/><path id="shape1" fill="#ffffff" fill-rule="evenodd" stroke="#000000" stroke-opacity="0" stroke-width="0" stroke-linecap="square" stroke-linejoin="bevel" d="M319.945 326.991L319.925 326.484L319.716 323.231L319.424 320.001L319.052 316.796L318.6 313.615L318.069 310.46L317.46 307.333L316.774 304.234L316.013 301.163L315.177 298.123L314.267 295.115L313.284 292.138L312.23 289.195L311.106 286.287L309.911 283.413L308.649 280.576L307.318 277.777L305.922 275.016L304.46 272.295L302.933 269.614L301.343 266.975L299.691 264.378L297.978 261.825L296.204 259.317L294.371 256.854L292.48 254.439L290.532 252.071L288.528 249.752L286.469 247.483L284.356 245.265L282.189 243.098L279.971 240.985L277.702 238.926L275.383 236.922L273.015 234.974L270.6 233.083L268.137 231.25L265.629 229.476L263.076 227.763L260.479 226.111L257.84 224.521L255.159 222.994L252.438 221.532L249.677 220.136L246.878 218.805L244.041 217.543L241.167 216.348L238.259 215.224L235.316 214.17L232.339 213.187L229.331 212.277L226.291 211.441L223.22 210.68L220.121 209.994L216.994 209.385L213.839 208.854L210.658 208.402L207.453 208.03L204.223 207.738L200.97 207.529L197.696 207.402L194.4 207.36L191.104 207.402L187.83 207.529L184.577 207.738L181.347 208.03L178.142 208.402L174.961 208.854L171.806 209.385L168.679 209.994L165.58 210.68L162.509 211.441L159.469 212.277L156.461 213.187L153.484 214.17L150.541 215.224L147.633 216.348L144.759 217.543L141.922 218.805L139.123 220.136L136.362 221.532L133.641 222.994L130.96 224.521L128.321 226.111L125.724 227.763L123.171 229.476L120.663 231.25L118.2 233.083L115.785 234.974L113.417 236.922L111.098 238.926L108.829 240.985L106.611 243.098L104.444 245.265L102.331 247.483L100.272 249.752L98.2677 252.071L96.3196 254.439L94.4286 256.854L92.5958 259.317L90.8222 261.825L89.1088 264.378L87.4567 266.975L85.8669 269.614L84.3405 272.295L82.8784 275.016L81.4817 277.777L80.1514 280.576L78.8887 283.413L77.6944 286.287L76.5697 289.195L75.5156 292.138L74.5331 295.115L73.6233 298.123L72.7871 301.163L72.0257 304.234L71.34 307.333L70.7311 310.46L70.2 313.615L69.7478 316.796L69.3755 320.001L69.0842 323.231L68.8748 326.484L68.8552 326.991L70.081 328.159L73.3776 331.151L76.7467 334.062L80.1868 336.893L83.6963 339.64L87.2738 342.303L90.9177 344.879L94.6266 347.369L98.3989 349.769L102.233 352.078L106.128 354.296L110.082 356.42L114.093 358.449L118.16 360.382L122.281 362.216L126.456 363.951L130.681 365.585L134.957 367.117L139.281 368.544L143.652 369.866L148.069 371.081L152.529 372.187L157.032 373.183L161.576 374.068L166.159 374.839L170.78 375.496L175.437 376.037L180.129 376.461L184.855 376.765L189.612 376.948L194.4 377.01L199.188 376.948L203.945 376.765L208.671 376.461L213.363 376.037L218.02 375.496L222.641 374.839L227.224 374.068L231.768 373.183L236.271 372.187L240.731 371.081L245.148 369.866L249.519 368.544L253.843 367.117L258.119 365.585L262.344 363.951L266.519 362.216L270.64 360.382L274.707 358.449L278.718 356.42L282.672 354.296L286.567 352.078L290.401 349.769L294.173 347.369L297.882 344.879L301.526 342.303L305.104 339.64L308.613 336.893L312.053 334.062L315.422 331.151L318.719 328.159L319.945 326.991"/>
</svg>
